<svg width="528" height="199" viewBox="0 0 528 199" fill="none" xmlns="http://www.w3.org/2000/svg">
<circle cx="99.1955" cy="99.1955" r="99.1955" fill="#EFC108"/>
<path d="M139.036 150.777H117.554L75.5668 77.752V150.777H55.5495V47.9702H78.0777L119.019 119.74V47.9702H139.036V150.777Z" fill="white"/>
<circle cx="269.812" cy="99.1955" r="99.1955" fill="#2850AD"/>
<path d="M313.636 47.6137L279.251 111.781V150.421H257.769V111.781L222.198 47.6137H247.516L268.859 92.3912L289.294 47.6137H313.636Z" fill="white"/>
<circle cx="428.524" cy="99.1955" r="99.1955" fill="#DE3615"/>
<path d="M457.911 143.105C450.239 150.126 440.428 153.637 428.478 153.637C413.692 153.637 402.067 148.894 393.605 139.408C385.142 129.876 380.911 116.81 380.911 100.211C380.911 82.2624 385.723 68.4293 395.348 58.7113C403.718 50.2486 414.366 46.0173 427.292 46.0173C444.59 46.0173 457.237 51.6901 465.235 63.0356C469.652 69.4058 472.023 75.7992 472.349 82.2159H450.867C449.472 77.2872 447.682 73.5673 445.496 71.0564C441.591 66.5926 435.802 64.3607 428.129 64.3607C420.318 64.3607 414.157 67.5226 409.646 73.8463C405.136 80.1235 402.881 89.0279 402.881 100.559C402.881 112.091 405.252 120.739 409.995 126.505C414.784 132.224 420.852 135.084 428.199 135.084C435.732 135.084 441.474 132.62 445.427 127.691C447.612 125.04 449.425 121.065 450.867 115.764H472.14C470.28 126.97 465.537 136.084 457.911 143.105Z" fill="white"/>
</svg>
